<svg width="222" height="50" viewBox="0 0 222 50" fill="none" xmlns="http://www.w3.org/2000/svg">
    <rect x="34" y="24.7487" width="35" height="35" rx="10" transform="rotate(-45 34 24.7487)" fill="#27AE60" />
    <path
        d="M89.614 12.4705C93.1175 14.4795 97.2825 16.0965 99.4875 19.208C101.692 22.295 101.937 26.9255 100.124 30.38C98.3115 33.8345 94.465 36.113 90.839 37.779C87.2375 39.445 83.8565 40.4985 79.814 41.4295C75.7715 42.385 71.043 43.1935 68.446 41.1845C65.8735 39.2 65.408 34.3735 64.33 29.988C63.252 25.627 61.537 21.707 62.566 18.6935C63.5705 15.7045 67.319 13.5975 70.7735 11.564C74.2035 9.53049 77.364 7.57049 80.3285 7.79099C83.3175 8.03599 86.135 10.4615 89.614 12.4705Z"
        fill="#FF0066" />
    <path
        d="M35.8435 8.722C39.4695 11.4905 42.8015 14.4795 43.463 17.983C44.149 21.4865 42.1155 25.529 40.719 29.7675C39.347 34.006 38.5875 38.416 35.9905 41.6255C33.3935 44.8105 28.9345 46.7705 25.48 45.4475C22.001 44.1 19.502 39.445 15.9985 36.554C12.4705 33.663 7.93801 32.5115 6.59051 29.939C5.24301 27.3665 7.05601 23.3975 8.57501 19.5265C10.1185 15.6555 11.3435 11.8825 13.9405 8.771C16.562 5.684 20.531 3.283 24.451 3.3565C28.371 3.43 32.242 5.978 35.8435 8.722Z"
        fill="#2D9CDB" />
    <path
        d="M25.196 38.36C23.252 38.36 21.368 38.084 19.544 37.532C17.744 36.98 16.316 36.248 15.26 35.336L16.88 31.7C17.912 32.516 19.172 33.188 20.66 33.716C22.172 34.22 23.684 34.472 25.196 34.472C27.068 34.472 28.46 34.172 29.372 33.572C30.308 32.972 30.776 32.18 30.776 31.196C30.776 30.476 30.512 29.888 29.984 29.432C29.48 28.952 28.832 28.58 28.04 28.316C27.248 28.052 26.168 27.752 24.8 27.416C22.88 26.96 21.32 26.504 20.12 26.048C18.944 25.592 17.924 24.884 17.06 23.924C16.22 22.94 15.8 21.62 15.8 19.964C15.8 18.572 16.172 17.312 16.916 16.184C17.684 15.032 18.824 14.12 20.336 13.448C21.872 12.776 23.744 12.44 25.952 12.44C27.488 12.44 29 12.632 30.488 13.016C31.976 13.4 33.26 13.952 34.34 14.672L32.864 18.308C31.76 17.66 30.608 17.168 29.408 16.832C28.208 16.496 27.044 16.328 25.916 16.328C24.068 16.328 22.688 16.64 21.776 17.264C20.888 17.888 20.444 18.716 20.444 19.748C20.444 20.468 20.696 21.056 21.2 21.512C21.728 21.968 22.388 22.328 23.18 22.592C23.972 22.856 25.052 23.156 26.42 23.492C28.292 23.924 29.828 24.38 31.028 24.86C32.228 25.316 33.248 26.024 34.088 26.984C34.952 27.944 35.384 29.24 35.384 30.872C35.384 32.264 35 33.524 34.232 34.652C33.488 35.78 32.348 36.68 30.812 37.352C29.276 38.024 27.404 38.36 25.196 38.36ZM48.2326 38.252C46.2886 38.252 44.5366 37.832 42.9766 36.992C41.4166 36.152 40.1926 34.988 39.3046 33.5C38.4406 31.988 38.0086 30.284 38.0086 28.388C38.0086 26.492 38.4406 24.8 39.3046 23.312C40.1926 21.824 41.4166 20.66 42.9766 19.82C44.5366 18.98 46.2886 18.56 48.2326 18.56C50.2006 18.56 51.9646 18.98 53.5246 19.82C55.0846 20.66 56.2966 21.824 57.1606 23.312C58.0486 24.8 58.4926 26.492 58.4926 28.388C58.4926 30.284 58.0486 31.988 57.1606 33.5C56.2966 34.988 55.0846 36.152 53.5246 36.992C51.9646 37.832 50.2006 38.252 48.2326 38.252ZM48.2326 34.4C49.8886 34.4 51.2566 33.848 52.3366 32.744C53.4166 31.64 53.9566 30.188 53.9566 28.388C53.9566 26.588 53.4166 25.136 52.3366 24.032C51.2566 22.928 49.8886 22.376 48.2326 22.376C46.5766 22.376 45.2086 22.928 44.1286 24.032C43.0726 25.136 42.5446 26.588 42.5446 28.388C42.5446 30.188 43.0726 31.64 44.1286 32.744C45.2086 33.848 46.5766 34.4 48.2326 34.4ZM62.7958 11.288H67.2958V38H62.7958V11.288ZM73.202 18.776H77.702V38H73.202V18.776ZM75.47 15.608C74.654 15.608 73.97 15.356 73.418 14.852C72.866 14.324 72.59 13.676 72.59 12.908C72.59 12.14 72.866 11.504 73.418 11C73.97 10.472 74.654 10.208 75.47 10.208C76.286 10.208 76.97 10.46 77.522 10.964C78.074 11.444 78.35 12.056 78.35 12.8C78.35 13.592 78.074 14.264 77.522 14.816C76.994 15.344 76.31 15.608 75.47 15.608ZM89.5483 38.252C87.9883 38.252 86.4643 38.048 84.9763 37.64C83.4883 37.232 82.3003 36.716 81.4123 36.092L83.1403 32.672C84.0043 33.248 85.0363 33.716 86.2363 34.076C87.4603 34.412 88.6603 34.58 89.8363 34.58C92.5243 34.58 93.8683 33.872 93.8683 32.456C93.8683 31.784 93.5203 31.316 92.8243 31.052C92.1523 30.788 91.0603 30.536 89.5483 30.296C87.9643 30.056 86.6683 29.78 85.6603 29.468C84.6763 29.156 83.8123 28.616 83.0683 27.848C82.3483 27.056 81.9883 25.964 81.9883 24.572C81.9883 22.748 82.7443 21.296 84.2563 20.216C85.7923 19.112 87.8563 18.56 90.4483 18.56C91.7683 18.56 93.0883 18.716 94.4083 19.028C95.7283 19.316 96.8083 19.712 97.6483 20.216L95.9203 23.636C94.2883 22.676 92.4523 22.196 90.4123 22.196C89.0923 22.196 88.0843 22.4 87.3883 22.808C86.7163 23.192 86.3803 23.708 86.3803 24.356C86.3803 25.076 86.7403 25.592 87.4603 25.904C88.2043 26.192 89.3443 26.468 90.8803 26.732C92.4163 26.972 93.6763 27.248 94.6603 27.56C95.6443 27.872 96.4843 28.4 97.1803 29.144C97.9003 29.888 98.2603 30.944 98.2603 32.312C98.2603 34.112 97.4803 35.552 95.9203 36.632C94.3603 37.712 92.2363 38.252 89.5483 38.252Z"
        fill="white" />
    <path
        d="M117.197 16.724V24.392H129.365V28.352H117.197V38H112.517V12.8H130.913V16.724H117.197ZM152.551 28.496C152.551 28.808 152.527 29.252 152.479 29.828H137.395C137.659 31.244 138.343 32.372 139.447 33.212C140.575 34.028 141.967 34.436 143.623 34.436C145.735 34.436 147.475 33.74 148.843 32.348L151.255 35.12C150.391 36.152 149.299 36.932 147.979 37.46C146.659 37.988 145.171 38.252 143.515 38.252C141.403 38.252 139.543 37.832 137.935 36.992C136.327 36.152 135.079 34.988 134.191 33.5C133.327 31.988 132.895 30.284 132.895 28.388C132.895 26.516 133.315 24.836 134.155 23.348C135.019 21.836 136.207 20.66 137.719 19.82C139.231 18.98 140.935 18.56 142.831 18.56C144.703 18.56 146.371 18.98 147.835 19.82C149.323 20.636 150.475 21.8 151.291 23.312C152.131 24.8 152.551 26.528 152.551 28.496ZM142.831 22.16C141.391 22.16 140.167 22.592 139.159 23.456C138.175 24.296 137.575 25.424 137.359 26.84H148.267C148.075 25.448 147.487 24.32 146.503 23.456C145.519 22.592 144.295 22.16 142.831 22.16ZM167.782 18.56C170.206 18.56 172.15 19.268 173.614 20.684C175.078 22.1 175.81 24.2 175.81 26.984V38H171.31V27.56C171.31 25.88 170.914 24.62 170.122 23.78C169.33 22.916 168.202 22.484 166.738 22.484C165.082 22.484 163.774 22.988 162.814 23.996C161.854 24.98 161.374 26.408 161.374 28.28V38H156.874V18.776H161.158V21.26C161.902 20.372 162.838 19.7 163.966 19.244C165.094 18.788 166.366 18.56 167.782 18.56ZM190.514 38.252C188.522 38.252 186.734 37.832 185.15 36.992C183.566 36.152 182.33 34.988 181.442 33.5C180.554 31.988 180.11 30.284 180.11 28.388C180.11 26.492 180.554 24.8 181.442 23.312C182.33 21.824 183.554 20.66 185.114 19.82C186.698 18.98 188.498 18.56 190.514 18.56C192.41 18.56 194.066 18.944 195.482 19.712C196.922 20.48 198.002 21.584 198.722 23.024L195.266 25.04C194.714 24.152 194.018 23.492 193.178 23.06C192.362 22.604 191.462 22.376 190.478 22.376C188.798 22.376 187.406 22.928 186.302 24.032C185.198 25.112 184.646 26.564 184.646 28.388C184.646 30.212 185.186 31.676 186.266 32.78C187.37 33.86 188.774 34.4 190.478 34.4C191.462 34.4 192.362 34.184 193.178 33.752C194.018 33.296 194.714 32.624 195.266 31.736L198.722 33.752C197.978 35.192 196.886 36.308 195.446 37.1C194.03 37.868 192.386 38.252 190.514 38.252ZM220.403 28.496C220.403 28.808 220.379 29.252 220.331 29.828H205.247C205.511 31.244 206.195 32.372 207.299 33.212C208.427 34.028 209.819 34.436 211.475 34.436C213.587 34.436 215.327 33.74 216.695 32.348L219.107 35.12C218.243 36.152 217.151 36.932 215.831 37.46C214.511 37.988 213.023 38.252 211.367 38.252C209.255 38.252 207.395 37.832 205.787 36.992C204.179 36.152 202.931 34.988 202.043 33.5C201.179 31.988 200.747 30.284 200.747 28.388C200.747 26.516 201.167 24.836 202.007 23.348C202.871 21.836 204.059 20.66 205.571 19.82C207.083 18.98 208.787 18.56 210.683 18.56C212.555 18.56 214.223 18.98 215.687 19.82C217.175 20.636 218.327 21.8 219.143 23.312C219.983 24.8 220.403 26.528 220.403 28.496ZM210.683 22.16C209.243 22.16 208.019 22.592 207.011 23.456C206.027 24.296 205.427 25.424 205.211 26.84H216.119C215.927 25.448 215.339 24.32 214.355 23.456C213.371 22.592 212.147 22.16 210.683 22.16Z"
        fill="#FF0066" />
</svg>